<?xml version="1.0" encoding="UTF-8" standalone="no"?>
<svg
   version="1.1"
   id="Layer_1"
   x="0px"
   y="0px"
   width="100%"
   viewBox="0 0 554 554"
   enable-background="new 0 0 554 554"
   xml:space="preserve"
   sodipodi:docname="logo-SIGLAS.svg"
   inkscape:version="1.4.2 (2aeb623e1d, 2025-05-12)"
   xmlns:inkscape="http://www.inkscape.org/namespaces/inkscape"
   xmlns:sodipodi="http://sodipodi.sourceforge.net/DTD/sodipodi-0.dtd"
   xmlns="http://www.w3.org/2000/svg"
   xmlns:svg="http://www.w3.org/2000/svg"><defs
   id="defs90" /><sodipodi:namedview
   id="namedview90"
   pagecolor="#ffffff"
   bordercolor="#000000"
   borderopacity="0.25"
   inkscape:showpageshadow="2"
   inkscape:pageopacity="0.0"
   inkscape:pagecheckerboard="0"
   inkscape:deskcolor="#d1d1d1"
   inkscape:zoom="0.83993751"
   inkscape:cx="398.83919"
   inkscape:cy="269.66292"
   inkscape:window-width="1366"
   inkscape:window-height="704"
   inkscape:window-x="0"
   inkscape:window-y="0"
   inkscape:window-maximized="1"
   inkscape:current-layer="Layer_1" />


















<g
   id="g1"
   transform="matrix(0.98793185,0,0,0.98793185,8.062657,5.0844618)"><path
     fill="#f5731a"
     opacity="1"
     stroke="none"
     d="m 310.35031,334.7209 c 9.37767,-68.67588 20.90686,-137.058 32.00056,-208.32738 h 205.87277 c -4.04688,17.94673 -7.62432,33.81175 -11.90749,52.80709 H 402.41419 c -3.94384,20.57693 -7.292,38.04471 -11.68742,60.97808 h 126.18429 c -2.49636,24.01792 -4.44858,42.801 -6.79727,65.39648 H 379.85503 c -2.25797,19.41078 -4.10296,35.26885 -6.69106,57.51587 h 135.23325 c -3.18552,22.37564 -5.45904,38.34546 -8.28859,58.22146 -63.15758,0 -135.38842,-1.05232 -200.88633,-1.53007 9.9312,-77.89124 6.21053,-49.04901 11.12801,-85.06153 z"
     id="path19"
     style="stroke-width:9.08298"
     sodipodi:nodetypes="sccccccccccccs" /></g>


















<path
   fill="#f4f3f2"
   opacity="1"
   stroke="none"
   d="m 518.02259,331.39576 c 1.63513,-0.2942 3.2771,-0.19819 4.91914,-0.10216 0.15909,0.47636 0.31825,0.95268 0.47739,1.429 -1.08489,0.71819 -2.20508,2.0233 -3.24299,1.96082 -0.77086,-0.0463 -1.43496,-1.86704 -2.15354,-3.28763 z"
   id="path38"
   style="stroke-width:1.05997" />

























<path
   fill="#f4f3f2"
   opacity="1"
   stroke="none"
   d="m 533.98001,328.76432 c -0.10866,0.41757 -0.37428,0.67058 -0.63989,0.92359 -0.10462,-0.10998 -0.30632,-0.31021 -0.29993,-0.31702 0.24904,-0.26803 0.51718,-0.51842 0.93982,-0.60657 z"
   id="path64"
   style="stroke-width:0.987932" />










<g
   id="g90"
   transform="matrix(4.539405,0,0,4.539405,-50.346851,79.44543)"><path
     fill="#155785"
     opacity="1"
     stroke="none"
     d="m 31.312855,62.943969 c -0.260421,0.409607 -0.594512,0.789947 -0.770538,1.233093 -4.693283,11.813904 -4.690506,11.815003 -18.307495,10.509094 1.22448,-3.307861 2.335754,-6.501434 3.581047,-9.641876 6.539482,-16.491516 13.197289,-32.936828 19.605019,-49.479187 1.32135,-3.411224 2.990966,-4.772735 6.816971,-4.658783 10.002868,0.297913 9.761764,0.181336 13.710357,10.659638 6.082306,16.140442 12.54541,32.13739 18.8396,48.198059 0.59143,1.509155 1.130447,3.03891 1.967254,5.296966 -4.81987,0 -9.079223,0.174897 -13.30484,-0.125274 -1.032791,-0.07333 -2.34259,-1.527588 -2.852188,-2.651917 -1.295639,-2.858673 -2.210495,-5.889892 -3.541031,-9.402862 -0.376403,-0.687867 -0.489563,-0.824952 -0.916778,-1.23581 -4.089462,-0.404419 -7.870438,-0.726013 -11.638764,-0.615692 -4.355697,0.127594 -8.700271,0.63562 -13.124389,1.206543 -0.07474,0.228088 -0.06423,0.708008 -0.06423,0.708008 M 51.572362,47.348418 c -2.228897,-6.410186 -4.45781,-12.820404 -7.127152,-20.497314 -3.032409,8.546265 -5.549652,15.640594 -8.218277,23.16159 5.072174,0 9.546402,0.06702 14.013275,-0.08395 0.564667,-0.0191 1.090653,-1.182221 1.332154,-2.580323 z"
     id="path6" /><path
     fill="#0c3f74"
     opacity="1"
     stroke="none"
     d="m 31.451802,62.007873 c 4.349396,-0.342835 8.69397,-0.850861 13.049667,-0.978455 3.768326,-0.110321 7.549302,0.211273 11.385743,0.648285 -0.102509,0.353088 -0.266053,0.399841 -0.429596,0.446564 -7.3676,-0.04657 -14.735215,-0.09317 -22.806473,-0.134033 -0.703659,0.0057 -1.199341,0.01764 -1.199341,0.01764 z"
     id="path37" /><path
     fill="#f4f3f2"
     opacity="1"
     stroke="none"
     d="m 31.37708,62.235961 c 0.07472,-0.228088 0.570404,-0.23999 0.809326,-0.173889 0.08949,0.35852 -0.131699,0.578888 -0.649109,0.804565 -0.224442,0.07733 -0.234955,-0.402588 -0.160217,-0.630676 z"
     id="path71" /><path
     fill="#f4f3f2"
     opacity="1"
     stroke="none"
     d="m 55.659932,62.329711 c -0.03877,-0.252167 0.124771,-0.29892 0.541336,-0.378235 0.36618,0.104492 0.47934,0.241577 0.677078,0.631653 -0.282303,0.152618 -0.6492,0.05231 -1.218414,-0.253418 z"
     id="path75" /></g>















</svg>
