<?xml version="1.0" encoding="UTF-8" standalone="no"?>
<svg
   version="1.1"
   width="554"
   height="554"
   id="svg29"
   sodipodi:docname="favicon2.svg"
   inkscape:export-filename="../f241fdd9/favicon3.png"
   inkscape:export-xdpi="96"
   inkscape:export-ydpi="96"
   inkscape:version="1.4.2 (2aeb623e1d, 2025-05-12)"
   xmlns:inkscape="http://www.inkscape.org/namespaces/inkscape"
   xmlns:sodipodi="http://sodipodi.sourceforge.net/DTD/sodipodi-0.dtd"
   xmlns="http://www.w3.org/2000/svg"
   xmlns:svg="http://www.w3.org/2000/svg">
  <defs
     id="defs29" />
  <sodipodi:namedview
     id="namedview29"
     pagecolor="#ffffff"
     bordercolor="#000000"
     borderopacity="0.25"
     inkscape:showpageshadow="2"
     inkscape:pageopacity="0.0"
     inkscape:pagecheckerboard="0"
     inkscape:deskcolor="#d1d1d1"
     inkscape:zoom="0.90072202"
     inkscape:cx="276.44489"
     inkscape:cy="277"
     inkscape:window-width="1366"
     inkscape:window-height="704"
     inkscape:window-x="0"
     inkscape:window-y="0"
     inkscape:window-maximized="1"
     inkscape:current-layer="svg29" />
  <path
     d="m 367.65173,128.19248 c 6.43326,3.44733 11.94211,7.90919 17.58798,12.50271 2.48505,1.97732 4.97102,3.95346 7.45796,5.92842 1.19194,0.95321 2.38389,1.90641 3.61196,2.88851 4.24859,3.37363 8.56359,6.63723 12.91299,9.87996 1.47586,1.10034 2.95174,2.20066 4.47233,3.33435 1.56066,1.16091 3.12132,2.32181 4.72927,3.51791 15.47044,11.54686 30.85999,23.19608 46.20651,34.90715 8.43566,6.43491 16.90008,12.82653 25.39964,19.17676 8.67921,6.50941 17.28634,13.11482 25.90935,19.69835 9.11734,6.95631 18.27288,13.85486 27.50158,20.66269 7.94217,6.19148 7.94217,6.19148 8.79781,12.05876 -0.68523,4.69869 -0.68523,4.69869 -3.32977,7.29162 -4.32528,2.51577 -7.13055,2.76886 -12.11229,2.90724 -1.60509,0.0555 -3.21016,0.11104 -4.86388,0.16825 -1.66566,0.0353 -3.3313,0.0707 -5.04743,0.10701 -1.68988,0.0535 -3.37974,0.10702 -5.12084,0.16213 -4.16626,0.12904 -8.33201,0.23741 -12.49925,0.32733 -2.19247,7.23092 -3.78666,14.1912 -4.85127,21.69207 -0.14568,1.01001 -0.29135,2.02004 -0.44145,3.06067 -0.31251,2.17181 -0.62174,4.3441 -0.92792,6.51681 -0.48662,3.44561 -0.98423,6.88946 -1.48494,10.33305 -1.42108,9.78361 -2.82636,19.56944 -4.21515,29.35769 -0.85297,6.00632 -1.72183,12.01016 -2.60048,18.01278 -0.33013,2.27763 -0.65421,4.55616 -0.97193,6.83555 -0.44516,3.19125 -0.91049,6.37898 -1.38017,9.56669 -0.25836,1.81027 -0.51672,3.62054 -0.78291,5.48566 -1.93183,8.55173 -5.38289,15.03304 -12.10218,20.70244 -5.83262,1.94421 -11.23873,1.78773 -17.31308,1.77566 -1.30014,0.004 -2.6003,0.007 -3.93984,0.0109 -4.37197,0.009 -8.74385,0.008 -13.11585,0.007 -3.12803,0.005 -6.25606,0.009 -9.38408,0.0159 -8.50715,0.0138 -17.01428,0.0176 -25.52144,0.0185 -7.09226,10e-4 -14.18451,0.007 -21.27677,0.0128 -16.72359,0.0128 -33.44717,0.0165 -50.17076,0.0154 -17.2785,-9.4e-4 -34.55692,0.0156 -51.8354,0.0403 -14.81504,0.0205 -29.63005,0.0289 -44.44511,0.0278 -8.85723,-4e-4 -17.7144,0.004 -26.57162,0.0207 -8.32388,0.0151 -16.64763,0.0153 -24.97153,0.004 -3.06229,-10e-4 -6.12459,0.002 -9.18685,0.011 -4.16543,0.0122 -8.33039,0.005 -12.49582,-0.007 -1.83715,0.0122 -1.83715,0.0122 -3.71144,0.0245 -8.34652,-0.0541 -8.34652,-0.0541 -11.8365,-3.54412 -0.94981,-6.10593 -0.55577,-8.60855 3.03457,-13.70453 6.11415,-4.49203 11.53713,-5.48489 18.89267,-6.65647 4.90177,-18.32224 7.11249,-36.92125 9.49527,-55.69911 0.60338,-4.69755 1.20972,-9.39472 1.81954,-14.09147 0.37561,-2.89873 0.74732,-5.79799 1.1141,-8.69786 1.34314,-10.44963 3.06395,-20.73372 4.79962,-31.14774 -13.43826,0 -26.87651,0 -40.722,0 -0.51686,-2.06744 -1.03372,-4.13485 -1.56623,-6.26494 8.39105,-7.53014 17.0287,-14.56627 26.03858,-21.3399 2.27337,-1.71514 4.54525,-3.43224 6.81557,-5.15143 1.47977,-1.11333 1.47977,-1.11333 2.98943,-2.24915 4.32292,-3.37269 8.51003,-6.89018 12.70958,-10.41529 -1.58034,-0.006 -3.16069,-0.0129 -4.78893,-0.0194 -5.87367,-0.0342 -11.7457,-0.11918 -17.61858,-0.21949 -2.53986,-0.0363 -5.07995,-0.0589 -7.62008,-0.0673 -3.65602,-0.0146 -7.30836,-0.0788 -10.96362,-0.15256 -1.13248,0.006 -2.26496,0.0123 -3.43177,0.0186 -5.84998,-0.1689 -8.36391,-0.68688 -12.67868,-4.7621 -3.17353,-5.51247 -3.32626,-8.89473 -2.41512,-15.15873 2.92428,-3.70408 5.20084,-5.73288 9.39738,-7.83115 2.66849,-0.0836 5.34041,-0.0655 8.00935,10e-4 2.51232,0.0517 2.51232,0.0517 5.07538,0.10447 1.82375,0.0377 3.64751,0.0754 5.52651,0.1142 5.90724,0.0494 11.81444,0.0805 17.72181,0.11091 4.06187,0.0399 8.12356,0.11322 12.18418,0.22178 29.03068,1.20008 29.03068,1.20008 53.86902,-11.88975 2.72094,-2.60349 5.32777,-5.2638 7.88614,-8.02676 4.07216,-4.1821 8.70104,-7.58741 13.36198,-11.08004 8.2454,-6.41517 16.32799,-13.01336 24.37448,-19.67578 8.38521,-6.93741 16.80657,-13.81902 25.35336,-20.55678 0.86413,-0.68443 1.72825,-1.36887 2.61856,-2.07404 14.60461,-11.44685 24.9078,-17.33546 42.6385,-9.1561 z m -69.54548,86.63255 c -7.64237,6.22338 -15.42754,12.23247 -23.28584,18.1799 -8.31412,6.31422 -16.54447,12.70368 -24.57025,19.38213 -0.82917,0.6776 -1.65834,1.35522 -2.51263,2.05338 -9.3402,7.8889 -11.7297,15.13722 -12.9478,27.05648 -0.15039,1.31868 -0.30079,2.63734 -0.45573,3.99597 -0.48706,4.29903 -0.94865,8.60038 -1.41028,12.9022 -0.49892,4.46465 -1.00422,8.92857 -1.50999,13.39245 -0.33985,3.00264 -0.67757,6.0055 -1.01317,9.0086 -1.03952,9.26041 -2.16041,18.50534 -3.38691,27.74282 -0.14781,1.11487 -0.29561,2.22973 -0.44789,3.37838 -0.68596,5.14726 -1.38379,10.29262 -2.09074,15.43705 -1.24003,9.28126 -2.14184,18.19498 -1.82969,27.5597 4.09472,2.04737 7.12346,1.7821 11.71088,1.80728 1.82254,0.0135 3.64509,0.027 5.52285,0.0408 2.00968,0.006 4.01937,0.0133 6.08996,0.0202 2.13008,0.0124 4.26016,0.0253 6.39022,0.0389 7.00574,0.0411 14.01149,0.0651 21.0173,0.0873 2.41136,0.008 4.82274,0.0168 7.2341,0.0253 10.03119,0.0339 20.06237,0.0632 30.09359,0.0809 14.37676,0.0254 28.75287,0.0774 43.12937,0.16663 10.10782,0.0606 20.21544,0.0913 30.32342,0.0995 6.03722,0.006 12.07375,0.0246 18.11078,0.0753 5.68242,0.047 11.36371,0.0571 17.04627,0.0386 3.07328,-5.1e-4 6.14649,0.0378 9.21953,0.0773 11.13749,0.14865 11.13749,0.14865 20.84157,-4.59659 4.78775,-5.77116 5.6794,-11.10258 6.63861,-18.3224 0.42323,-2.83993 0.42323,-2.83993 0.855,-5.73723 1.01368,-6.88988 1.9394,-13.79074 2.86481,-20.69292 0.6839,-5.0438 1.37215,-10.08702 2.06178,-15.13003 0.17124,-1.25491 0.34246,-2.50983 0.51887,-3.80276 1.84013,-13.41234 3.86103,-26.79683 5.96555,-40.17026 2.98887,-17.37129 2.98887,-17.37129 -2.86862,-33.50037 -3.32346,-3.45226 -3.32346,-3.45226 -7.34172,-6.46071 -1.53643,-1.20734 -3.07287,-2.41469 -4.65585,-3.65861 -1.74084,-1.32929 -3.48464,-2.6547 -5.23098,-3.97676 -0.93251,-0.70715 -1.86501,-1.41429 -2.82579,-2.14286 -5.19076,-3.92443 -10.40101,-7.82205 -15.62025,-11.70849 -6.51842,-4.85988 -12.98391,-9.78642 -19.43717,-14.73237 -1.07271,-0.82083 -2.14541,-1.64168 -3.25063,-2.48739 -4.94726,-3.78666 -9.8917,-7.57692 -14.82985,-11.37544 -4.47656,-3.4431 -8.95804,-6.87971 -13.43994,-10.31586 -1.41264,-1.08975 -2.82527,-2.17947 -4.28074,-3.30224 -1.99065,-1.52408 -1.99065,-1.52408 -4.02149,-3.07894 -1.76351,-1.35579 -1.76351,-1.35579 -3.56265,-2.73898 -21.03545,-14.83498 -52.18797,21.68589 -68.80786,35.28417 z"
     fill="#165d8c"
     id="path3"
     style="stroke-width:1.56623" />
  <path
     d="m 26.883251,306.49392 c 1.757689,-9.3e-4 3.51539,-0.002 5.326346,-0.002 5.814022,0.005 11.626792,0.0531 17.440596,0.1022 4.029299,0.0122 8.058609,0.0207 12.087919,0.0269 9.524155,0.0215 19.047799,0.0709 28.571759,0.13375 10.844179,0.0701 21.688379,0.10446 32.532739,0.13592 22.3042,0.0654 44.60801,0.17691 66.91187,0.31528 -1.03373,8.26969 -2.06742,16.53939 -3.13247,25.05968 -22.96757,0.14503 -45.93505,0.25683 -68.90299,0.3246 -10.6644,0.0323 -21.32852,0.0764 -31.992744,0.14804 -10.287252,0.0691 -20.574285,0.10543 -30.861781,0.12177 -3.929208,0.0122 -7.858406,0.0343 -11.787482,0.068 -5.494138,0.0454 -10.987024,0.0518 -16.481308,0.0488 -1.632414,0.0225 -3.264827,0.0452 -4.946702,0.0682 -11.01652,-0.0634 -11.01652,-0.0634 -16.1514448,-3.76062 -2.2874831,-3.53554 -2.9730006,-5.37067 -2.907718,-9.54872 -0.024223,-1.55057 -0.024223,-1.55057 -0.048952,-3.13246 3.186189,-11.99518 14.2540708,-10.24548 24.3423608,-10.10872 z"
     fill="#f57319"
     id="path6"
     style="stroke-width:1.56623" />
  <path
     d="m 74.671658,356.6133 c 1.177196,-9.1e-4 2.354381,-10e-4 3.567246,-0.002 3.882036,0.005 7.762161,0.053 11.643855,0.1022 2.69492,0.0122 5.389846,0.0206 8.084773,0.0269 7.086328,0.024 14.171868,0.0854 21.257888,0.15477 7.23341,0.0641 14.46696,0.0927 21.70057,0.12427 14.18827,0.0672 28.37571,0.17735 42.56356,0.3059 -1.03372,8.26972 -2.06743,16.53941 -3.13246,25.0597 -14.97634,0.177 -29.95199,0.32065 -44.92915,0.40576 -6.95468,0.0409 -13.90863,0.0962 -20.86288,0.18503 -6.71271,0.0851 -13.42471,0.13192 -20.137916,0.15223 -2.559697,0.0145 -5.119368,0.0427 -7.678768,0.085 -3.588869,0.0569 -7.174759,0.0647 -10.764006,0.0611 -3.062375,0.0261 -3.062375,0.0261 -6.186615,0.0527 -6.74057,-1.18833 -9.037378,-3.41754 -13.172944,-8.77289 -0.960564,-6.08364 -1.179507,-9.31571 2.451162,-14.38812 5.117278,-3.81125 9.464636,-3.6766 15.595685,-3.55165 z"
     fill="#f57219"
     id="path9"
     style="stroke-width:1.56623" />
  <path
     d="m 74.875849,258.47416 c 1.604698,-3.4e-4 1.604698,-3.4e-4 3.241818,-6.9e-4 3.542424,10e-4 7.084728,0.0132 10.627129,0.0255 2.453591,0.002 4.907189,0.005 7.360787,0.007 6.462917,0.006 12.925757,0.0214 19.388647,0.0386 6.59288,0.016 13.18576,0.0231 19.77864,0.031 12.93979,0.0167 25.87954,0.0435 38.8193,0.0765 -6.01492,6.10753 -12.13178,11.12445 -19.11904,16.05999 -0.92671,0.90248 -1.85342,1.80496 -2.8082,2.73477 0,2.06744 0,4.13487 0,6.26494 -11.73574,0.18154 -23.47133,0.32064 -35.20815,0.40575 -5.45017,0.0408 -10.89938,0.0962 -16.34901,0.18503 -6.267059,0.10137 -12.53311,0.13939 -18.800889,0.17399 -2.932064,0.0606 -2.932064,0.0606 -5.923366,0.12248 -1.818242,5.7e-4 -3.636482,10e-4 -5.509815,10e-4 -1.599881,0.0174 -3.199751,0.0348 -4.848108,0.0527 -4.202077,-0.94172 -4.202077,-0.94172 -7.851231,-4.61308 -3.195933,-5.0824 -3.620016,-7.65728 -2.61578,-13.55719 6.134271,-7.56559 10.349044,-8.02593 19.817268,-8.00896 z"
     fill="#f47823"
     id="path10"
     style="stroke-width:1.56623" />
  <path
     fill="#f4f3f2"
     opacity="1"
     stroke="none"
     d="m 439.96739,339.37777 c 0.64174,-0.11546 1.28616,-0.0778 1.93061,-0.0401 0.0624,0.18696 0.12491,0.3739 0.18736,0.56084 -0.42578,0.28186 -0.86543,0.79408 -1.27277,0.76956 -0.30254,-0.0181 -0.56317,-0.73275 -0.8452,-1.29029 z"
     id="path38"
     style="stroke-width:0.416005" />
  <path
     fill="#f4f3f2"
     opacity="1"
     stroke="none"
     d="m 446.23018,338.34501 c -0.0427,0.16388 -0.14689,0.26319 -0.25113,0.36249 -0.0411,-0.0432 -0.12022,-0.12175 -0.11772,-0.12442 0.0978,-0.10519 0.20298,-0.20347 0.36885,-0.23807 z"
     id="path64"
     style="stroke-width:0.387733" />
</svg>
